<svg width="375" height="812" viewBox="0 0 375 812" fill="none" xmlns="http://www.w3.org/2000/svg">
<path d="M77.5484 108.515L-9.96555 -13.5559C-19.1657 -5.25331 -25 6.63962 -25 19.8789V181.667L77.5484 108.515Z" fill="#EDF6F5" fill-opacity="0.5"/>
<path d="M-24.7754 490.883V792.021C-24.7754 816.704 -4.57987 836.9 20.1035 836.9H154.965L353.554 694.858L128.935 380.93L-24.7754 490.883Z" fill="#EDF6F5" fill-opacity="0.5"/>
<path d="M237.99 255.718L399.106 140.379V19.8789C399.106 -4.80448 378.91 -25 354.227 -25H37.1572L237.99 255.718Z" fill="#EDF6F5" fill-opacity="0.5"/>
<path d="M399.33 603.978V416.384L270.079 508.835L358.939 632.925L399.33 603.978Z" fill="#EDF6F5" fill-opacity="0.5"/>
<path d="M246.518 476.073L399.331 366.793V179.199L157.882 351.759L246.518 476.073Z" fill="#EDF6F5" fill-opacity="0.5"/>
<path d="M201.639 281.972L91.9098 128.71L-24.7754 212.185V443.985L201.639 281.972Z" fill="#EDF6F5" fill-opacity="0.5"/>
</svg>
