<svg width="64" height="64" viewBox="0 0 64 64" fill="none" xmlns="http://www.w3.org/2000/svg">
<rect width="64" height="64" rx="16" fill="white"/>
<path d="M30.2019 36.6353L20.81 29.7904C19.4971 28.8335 17.8481 30.4362 18.7671 31.7758L29.8614 47.9471C30.4355 48.7839 31.6707 48.7839 32.2448 47.9471L43.339 31.7758C44.2581 30.4362 42.609 28.8335 41.2961 29.7904L31.9043 36.6353C31.397 37.005 30.7091 37.005 30.2019 36.6353Z" fill="#054BB4"/>
<path d="M42.485 21.5375C41.9202 22.0912 41.0031 22.0912 40.4383 21.5375C35.4143 16.6114 27.2682 16.6114 22.2442 21.5375C21.6794 22.0868 20.7622 22.0868 20.1975 21.5286C19.6418 20.9749 19.6418 20.0844 20.202 19.5307C26.3465 13.4972 36.3179 13.4883 42.4714 19.513C42.476 19.5174 42.4805 19.5218 42.4895 19.5307C43.0452 20.0844 43.0407 20.9793 42.485 21.5375ZM24.6749 23.9208C24.1101 24.4745 24.1101 25.3738 24.6749 25.9275C25.2396 26.4812 26.1568 26.4812 26.7215 25.9275C29.2697 23.429 33.4173 23.429 35.97 25.9275C36.5347 26.4812 37.4519 26.4812 38.0167 25.9275C38.5814 25.3738 38.5814 24.4745 38.0167 23.9208C34.3344 20.3148 28.3526 20.3148 24.6749 23.9208ZM33.5347 28.3064C34.7456 29.4936 34.7456 31.4206 33.5347 32.6078C32.3239 33.795 30.3586 33.795 29.1477 32.6078C27.9369 31.4206 27.9369 29.4936 29.1477 28.3064C30.345 27.1192 32.2923 27.1059 33.5031 28.2798C33.5167 28.2887 33.5257 28.2975 33.5347 28.3064Z" fill="#054BB4"/>
</svg>
