<svg width="40" height="40" viewBox="0 0 40 40" fill="none" xmlns="http://www.w3.org/2000/svg">
<rect width="40" height="40" rx="12" fill="#EBF0FC"/>
<path d="M19.7745 23.4022L12.4185 18.0411C11.7113 17.5256 10.8229 18.389 11.318 19.1107L19.591 31.1696C19.9003 31.6204 20.5657 31.6204 20.875 31.1696L29.148 19.1107C29.6431 18.389 28.7547 17.5256 28.0475 18.0411L20.6915 23.4022C20.4183 23.6014 20.0477 23.6014 19.7745 23.4022Z" fill="#054BB4"/>
<path d="M27.9306 13.1521C27.5503 13.525 26.9327 13.525 26.5524 13.1521C23.1694 9.83506 17.6841 9.83506 14.301 13.1521C13.9207 13.522 13.3031 13.522 12.9229 13.1462C12.5486 12.7733 12.5486 12.1737 12.9259 11.8008C17.0634 7.73803 23.7778 7.73207 27.9214 11.7889C27.9245 11.7919 27.9275 11.7949 27.9336 11.8008C28.3078 12.1737 28.3048 12.7763 27.9306 13.1521ZM15.9378 14.757C15.5575 15.1298 15.5575 15.7354 15.9378 16.1082C16.3181 16.4811 16.9357 16.4811 17.3159 16.1082C19.0318 14.4258 21.8247 14.4258 23.5436 16.1082C23.9239 16.4811 24.5414 16.4811 24.9217 16.1082C25.302 15.7354 25.302 15.1298 24.9217 14.757C22.4422 12.3288 18.4142 12.3288 15.9378 14.757ZM21.9038 17.7101C22.7191 18.5095 22.7191 19.8071 21.9038 20.6066C21.0884 21.406 19.765 21.406 18.9497 20.6066C18.1343 19.8071 18.1343 18.5095 18.9497 17.7101C19.7559 16.9107 21.0671 16.9017 21.8825 17.6922C21.8916 17.6982 21.8977 17.7041 21.9038 17.7101Z" fill="#054BB4"/>
</svg>
